<?xml version="1.0" encoding="utf-8"?>
<!-- Generator: Adobe Illustrator 25.2.3, SVG Export Plug-In . SVG Version: 6.00 Build 0)  -->
<svg version="1.1" id="Layer_1" xmlns="http://www.w3.org/2000/svg" xmlns:xlink="http://www.w3.org/1999/xlink" x="0px" y="0px"
	 viewBox="0 0 190.6 35.9" style="enable-background:new 0 0 190.6 35.9;" xml:space="preserve">
<style type="text/css">
	.st0{fill:#F9250F;}
</style>
<g>
	<path class="st0" d="M46,35.6h10.5L43.1,4c-0.5-1.2-1.3-2.2-2.4-2.9c-1.1-0.7-2.3-1.1-3.6-1.1H26.6L40,31.7
		c0.5,1.2,1.3,2.2,2.4,2.9S44.7,35.6,46,35.6z"/>
	<path class="st0" d="M36.4,35.6L22.9,4c-0.5-1.2-1.3-2.2-2.4-2.9c-1.1-0.7-2.3-1.1-3.6-1.1H6.4l13.4,31.6c0.5,1.2,1.3,2.2,2.4,2.9
		s2.3,1.1,3.6,1.1H36.4z"/>
	<path class="st0" d="M6.4,22.7L6.4,22.7c-4.6,0-7.7,4.7-5.9,9c0.5,1.2,1.3,2.2,2.4,2.9c1.1,0.7,2.3,1.1,3.6,1.1h9.7l-3.8-9
		c-0.5-1.2-1.3-2.2-2.4-2.9C8.9,23.1,7.7,22.7,6.4,22.7z"/>
	<path class="st0" d="M56.9,0L56.9,0c-4.6,0-7.7,4.7-5.9,9c0.5,1.2,1.3,2.2,2.4,2.9c1.1,0.7,2.3,1.1,3.6,1.1h9.7l-3.8-9
		c-0.5-1.2-1.3-2.2-2.4-2.9C59.4,0.4,58.2,0,56.9,0z"/>
	<path class="st0" d="M64.8,17.7H54.3l5.9,13.9c0.5,1.2,1.3,2.2,2.4,2.9c1.1,0.7,2.3,1.1,3.6,1.1h10.5l-5.9-13.9
		c-0.5-1.2-1.3-2.2-2.4-2.9C67.3,18.1,66.1,17.7,64.8,17.7z"/>
	<path d="M89.8,19.3h-1.5V7.9h1.5l4,6.9h0.1l4-6.9h1.5v11.4h-1.5v-6.8l0.1-1.9h-0.1l-3.6,6.2h-0.9l-3.6-6.2h-0.1l0.1,1.9V19.3z"/>
	<path d="M112.5,13.6c0,1.7-0.6,3.1-1.7,4.2c-1.1,1.1-2.5,1.7-4.2,1.7c-1.6,0-3-0.6-4.2-1.7c-1.1-1.1-1.7-2.5-1.7-4.2
		s0.6-3.1,1.7-4.2c1.1-1.1,2.5-1.7,4.2-1.7c1.7,0,3,0.6,4.2,1.7C111.9,10.5,112.5,11.9,112.5,13.6z M102.3,13.6
		c0,1.3,0.4,2.4,1.2,3.3c0.8,0.9,1.9,1.3,3.1,1.3c1.2,0,2.3-0.4,3.1-1.3c0.8-0.8,1.3-1.9,1.3-3.3s-0.4-2.4-1.3-3.3
		c-0.8-0.9-1.9-1.3-3.1-1.3c-1.2,0-2.3,0.4-3.1,1.3C102.7,11.2,102.3,12.3,102.3,13.6z"/>
	<path d="M117.6,9.3v10h-1.5v-10H113V7.9h7.8v1.4H117.6z"/>
	<path d="M133,13.6c0,1.7-0.6,3.1-1.7,4.2c-1.1,1.1-2.5,1.7-4.2,1.7c-1.7,0-3-0.6-4.2-1.7c-1.1-1.1-1.7-2.6-1.7-4.2
		c0-1.7,0.6-3.1,1.7-4.2c1.1-1.1,2.5-1.7,4.2-1.7c1.7,0,3,0.6,4.2,1.7C132.4,10.5,133,11.9,133,13.6z M122.8,13.6
		c0,1.3,0.4,2.4,1.2,3.3c0.8,0.9,1.9,1.3,3.1,1.3c1.2,0,2.3-0.4,3.1-1.3c0.8-0.8,1.3-1.9,1.3-3.3c0-1.3-0.4-2.4-1.3-3.3
		c-0.8-0.9-1.9-1.3-3.1-1.3c-1.2,0-2.3,0.4-3.1,1.3C123.2,11.2,122.8,12.3,122.8,13.6z"/>
	<path d="M136.2,19.3h-1.5V7.9h3.9c0.9,0,1.8,0.3,2.5,1c0.6,0.6,1,1.4,1,2.2c0.1,0.8-0.2,1.7-0.8,2.3c-0.5,0.6-1.2,1-1.9,1.2l0,0
		l3.2,4.6v0.1h-1.7l-3.1-4.6h-1.6V19.3z M136.2,9.3v4h2.4c0.6,0,1.1-0.2,1.5-0.6c0.2-0.2,0.4-0.4,0.5-0.7c0.1-0.2,0.2-0.5,0.2-0.8
		c0-0.3-0.1-0.5-0.2-0.8c-0.1-0.2-0.3-0.5-0.4-0.6c-0.2-0.2-0.4-0.3-0.7-0.4c-0.2-0.1-0.5-0.1-0.8-0.1H136.2z"/>
	<path d="M150.9,16.2c0,1-0.4,1.8-1.1,2.4c-0.7,0.6-1.6,0.9-2.7,0.9c-0.9,0-1.8-0.3-2.5-0.8c-0.7-0.6-1.2-1.3-1.5-2.3l1.4-0.6
		c0.1,0.3,0.2,0.6,0.4,0.9c0.2,0.3,0.4,0.5,0.6,0.7c0.2,0.2,0.5,0.3,0.8,0.5c0.3,0.1,0.6,0.2,0.9,0.2c0.7,0,1.2-0.2,1.6-0.5
		c0.2-0.2,0.4-0.4,0.5-0.6c0.1-0.2,0.2-0.5,0.2-0.8c0-0.2,0-0.5-0.1-0.7c-0.1-0.2-0.2-0.4-0.4-0.6c-0.3-0.3-0.9-0.6-1.8-1
		c-0.9-0.3-1.5-0.5-1.7-0.7c-1.2-0.6-1.8-1.5-1.8-2.7c0-0.8,0.3-1.6,1-2.1c0.7-0.6,1.5-0.9,2.5-0.9c0.9,0,1.6,0.2,2.3,0.7
		c0.6,0.4,1,1,1.3,1.6l-1.4,0.6c-0.1-0.4-0.4-0.8-0.8-1.1C148,9.2,147.5,9,147,9c-0.5,0-1,0.2-1.4,0.5c-0.2,0.1-0.3,0.3-0.4,0.5
		c-0.1,0.2-0.2,0.4-0.2,0.7c0,0.2,0,0.4,0.1,0.6c0.1,0.2,0.2,0.3,0.3,0.5c0.3,0.3,1.1,0.6,2.2,1c1.2,0.4,2,0.9,2.5,1.4
		C150.7,14.7,150.9,15.4,150.9,16.2z"/>
	<path d="M154.2,14.7v4.6h-1.5V7.9h3.9c0.5,0,0.9,0.1,1.4,0.2c0.4,0.2,0.8,0.4,1.2,0.7c0.3,0.3,0.6,0.7,0.8,1.1
		c0.2,0.4,0.3,0.9,0.3,1.3c0,0.5-0.1,0.9-0.3,1.3c-0.2,0.4-0.4,0.8-0.8,1.1c-0.7,0.6-1.5,1-2.5,1L154.2,14.7z M154.2,9.3v4h2.4
		c0.3,0,0.5,0,0.8-0.1c0.2-0.1,0.5-0.3,0.7-0.4c0.3-0.3,0.5-0.6,0.5-1c0.1-0.4,0-0.8-0.1-1.1c-0.2-0.4-0.4-0.7-0.7-0.9
		c-0.3-0.2-0.7-0.3-1.1-0.3L154.2,9.3z"/>
	<path d="M172.6,13.6c0,1.7-0.6,3.1-1.7,4.2c-1.1,1.1-2.5,1.7-4.2,1.7c-1.7,0-3-0.6-4.2-1.7c-1.1-1.1-1.7-2.6-1.7-4.2
		c0-1.7,0.6-3.1,1.7-4.2c1.1-1.1,2.5-1.7,4.2-1.7c1.7,0,3,0.6,4.2,1.7C172.1,10.5,172.6,11.9,172.6,13.6z M162.4,13.6
		c0,1.3,0.4,2.4,1.2,3.3c0.8,0.9,1.9,1.3,3.1,1.3c1.2,0,2.3-0.4,3.1-1.3c0.8-0.8,1.3-1.9,1.3-3.3c0-1.3-0.4-2.4-1.3-3.3
		C169.1,9.5,168,9,166.8,9c-1.2,0-2.3,0.4-3.1,1.3C162.8,11.2,162.4,12.3,162.4,13.6z"/>
	<path d="M175.8,19.3h-1.5V7.9h3.9c0.9,0,1.8,0.3,2.5,1c0.6,0.6,1,1.4,1,2.2c0.1,0.8-0.2,1.7-0.8,2.3c-0.5,0.6-1.2,1-1.9,1.2l0,0
		l3.2,4.6v0.1h-1.7l-3.1-4.6h-1.6V19.3z M175.8,9.3v4h2.4c0.6,0,1.1-0.2,1.5-0.6c0.2-0.2,0.4-0.4,0.5-0.7c0.1-0.2,0.2-0.5,0.2-0.8
		c0-0.3-0.1-0.5-0.2-0.8c-0.1-0.2-0.3-0.5-0.4-0.6c-0.2-0.2-0.4-0.3-0.7-0.4c-0.2-0.1-0.5-0.1-0.8-0.1H175.8z"/>
	<path d="M187.4,9.3v10H186v-10h-3.2V7.9h7.8v1.4H187.4z"/>
	<path d="M89.8,35.6h-1.5V24.3h1.5V35.6z"/>
	<path d="M98.4,35.6H92V24.3h1.5v10h4.9V35.6z"/>
	<path d="M106.4,35.6H100V24.3h1.5v10h4.9L106.4,35.6z"/>
	<path d="M111.7,35.9c-1.3,0-2.3-0.4-3.1-1.2c-0.8-0.8-1.2-1.9-1.2-3.2v-7.2h1.5v7.2c0,0.9,0.2,1.7,0.7,2.2c0.5,0.5,1.2,0.8,2,0.8
		c0.9,0,1.5-0.3,2-0.8c0.5-0.5,0.7-1.3,0.7-2.2v-7.2h1.5v7.2c0,1.4-0.4,2.5-1.1,3.3C114,35.5,113,35.9,111.7,35.9z"/>
	<path d="M125,32.6c0,1-0.4,1.8-1.1,2.4c-0.7,0.6-1.6,0.9-2.7,0.9c-0.9,0-1.8-0.3-2.5-0.8c-0.7-0.6-1.2-1.3-1.5-2.3l1.4-0.6
		c0.1,0.3,0.2,0.6,0.4,0.9c0.2,0.3,0.4,0.5,0.6,0.7c0.2,0.2,0.5,0.3,0.8,0.5c0.3,0.1,0.6,0.2,0.9,0.2c0.7,0,1.2-0.2,1.6-0.5
		c0.2-0.2,0.4-0.4,0.5-0.6c0.1-0.2,0.2-0.5,0.2-0.8c0-0.2,0-0.5-0.1-0.7c-0.1-0.2-0.2-0.4-0.4-0.6c-0.3-0.3-0.9-0.6-1.8-1
		c-0.9-0.3-1.5-0.6-1.7-0.7c-1.2-0.6-1.8-1.5-1.8-2.7c0-0.8,0.3-1.6,1-2.1c0.7-0.6,1.5-0.9,2.5-0.9c0.9,0,1.6,0.2,2.3,0.7
		c0.6,0.4,1,1,1.3,1.6l-1.4,0.6c-0.1-0.4-0.4-0.8-0.8-1.1c-0.4-0.3-0.9-0.4-1.4-0.4c-0.5,0-1,0.2-1.4,0.5c-0.2,0.1-0.3,0.3-0.4,0.5
		c-0.1,0.2-0.2,0.4-0.1,0.7c0,0.2,0,0.4,0.1,0.6c0.1,0.2,0.2,0.3,0.3,0.5c0.3,0.3,1.1,0.6,2.2,1c1.2,0.4,2,0.9,2.5,1.4
		C124.7,31.1,124.9,31.8,125,32.6z"/>
	<path d="M130.4,25.7v10H129v-10h-3.2v-1.4h7.8v1.4H130.4z"/>
	<path d="M136.6,35.6h-1.5V24.3h3.9c0.9,0,1.8,0.3,2.5,1c0.6,0.6,1,1.4,1,2.2c0,0.8-0.2,1.7-0.8,2.3c-0.5,0.6-1.2,1-1.9,1.2l0,0
		l3.2,4.6v0.1h-1.7l-3.1-4.6h-1.6V35.6z M136.6,25.7v4h2.4c0.6,0,1.1-0.2,1.5-0.6c0.2-0.2,0.4-0.4,0.5-0.7c0.1-0.2,0.2-0.5,0.2-0.8
		c0-0.3-0.1-0.5-0.2-0.8c-0.1-0.2-0.3-0.5-0.4-0.6c-0.2-0.2-0.4-0.3-0.7-0.4c-0.2-0.1-0.5-0.1-0.8-0.1L136.6,25.7z"/>
	<path d="M145,35.6h-1.6l4.3-11.4h1.7l4.3,11.4H152l-1.1-3.1h-4.8L145,35.6z M148.5,26.1l-1.9,5.1h3.8L148.5,26.1L148.5,26.1z"/>
	<path d="M157.8,25.7v10h-1.5v-10h-3.2v-1.4h7.8v1.4H157.8z"/>
	<path d="M169.1,24.3v1.4H164v3.6h4.7v1.4H164v3.6h5.2v1.4h-6.6V24.3H169.1z"/>
	<path d="M171.1,35.6V24.3h3.5c1.7,0,3.1,0.5,4.2,1.6c1.1,1,1.6,2.4,1.6,4.1c0,1.7-0.5,3.1-1.6,4.1c-1.1,1-2.5,1.6-4.2,1.6H171.1z
		 M172.6,25.7v8.6h2c1.3,0,2.4-0.4,3.1-1.1c0.8-0.8,1.1-1.8,1.1-3.2c0-1.3-0.4-2.4-1.1-3.1c-0.8-0.8-1.8-1.1-3.1-1.1H172.6z"/>
</g>
</svg>
